<?xml version="1.0" ?><svg enable-background="new 0 0 128 128" id="Layer_1" version="1.1" viewBox="0 0 128 128" xml:space="preserve" xmlns="http://www.w3.org/2000/svg" xmlns:xlink="http://www.w3.org/1999/xlink"><line fill="none" stroke="#00AEEF" stroke-linecap="round" stroke-linejoin="round" stroke-miterlimit="10" stroke-width="4" x1="65" x2="65" y1="111" y2="15"/><path d="  M65.2857132,25h40c1.0131683,0,1.9885941,0.3844757,2.7292709,1.075779l10.7142868,10  c1.6943054,1.5813484,1.6943054,4.2670937,0,5.8484421l-10.7142868,10C107.2743073,52.6155243,106.2988815,53,105.2857132,53h-40" fill="none" stroke="#00AEEF" stroke-linecap="round" stroke-linejoin="round" stroke-miterlimit="10" stroke-width="4"/><path d="  M64,41H31c-1.0131702,0-1.9885902,0.3844757-2.7292728,1.075779l-10.7142868,10  c-1.6943016,1.5813484-1.6943016,4.2670937,0,5.8484421l10.7142868,10.0000038C29.0114098,68.6155243,29.9868298,69,31,69h33" fill="none" stroke="#00AEEF" stroke-linecap="round" stroke-linejoin="round" stroke-miterlimit="10" stroke-width="4"/><line fill="none" stroke="#00AEEF" stroke-linecap="round" stroke-linejoin="round" stroke-miterlimit="10" stroke-width="4" x1="51.2857132" x2="79.2857132" y1="113" y2="113"/></svg>