<svg width="600" height="600" xmlns="http://www.w3.org/2000/svg">

 <g>
  <title>background</title>
  <rect fill="none" id="canvas_background" height="602" width="602" y="-1" x="-1"/>
 </g>
 <g>
  <title>Layer 1</title>
  <path fill="#4c4c4c" id="svg_1" d="m275.095459,260.15271l84.675476,-84.675476l139.465515,0l0,-174.331879l-174.331909,0l0,139.4655l-84.675461,84.675491l-139.465515,0l0,174.331879l139.465515,0l59.77092,59.770935l0,139.465454l174.331909,0l0,-174.331848l-139.465546,0l-59.770905,-59.770905l0,-104.599152zm99.618225,-209.198246l74.713623,0l0,74.713665l-74.713623,0l0,-74.713665zm-149.427353,298.854649l-74.713654,0l0,-74.713654l74.713654,0l0,74.713654zm124.522781,124.522766l74.713654,0l0,74.713654l-74.713654,0l0,-74.713654z" class="st0"/>
 </g>
</svg>